<?xml version="1.0" standalone="no"?><!DOCTYPE svg PUBLIC "-//W3C//DTD SVG 1.1//EN" "http://www.w3.org/Graphics/SVG/1.1/DTD/svg11.dtd"><svg t="1647268946622" class="icon" viewBox="0 0 1038 1024" version="1.1" xmlns="http://www.w3.org/2000/svg" p-id="22669" xmlns:xlink="http://www.w3.org/1999/xlink" width="129.75" height="128"><defs><style type="text/css"></style></defs><path d="M506.908544 944.31829c23.576976 0 42.722564-18.220302 42.722564-41.579633V114.469166c0-22.99659-19.43816-41.65337-42.722564-41.65337H376.742801c-23.576976 0.073738-42.721375 18.266685-42.721375 41.65337v788.194565c0 22.991833 19.436971 41.579633 42.721375 41.579633h130.165743v0.074926z m328.868125-1.365333l124.785282-32.394555c22.652878-5.895433 36.098081-28.25574 29.886291-50.833691L780.000186 98.367034c-6.085724-22.187856-29.71384-35.340488-52.074147-29.547336L603.145515 101.215443c-22.652878 5.91803-36.074295 28.278337-29.862505 50.861045L783.656139 913.405621c6.211791 22.21521 29.788767 35.316702 52.12053 29.547336z m-583.205463 1.365333c23.600762 0 42.746351-18.271443 42.74635-41.630773V114.469166c0-22.99659-19.461947-41.65337-42.74635-41.65337H122.42925C98.829677 72.913319 79.684088 91.082481 79.684088 114.469166v788.194565c0 22.991833 19.460757 41.579633 42.745162 41.579633h130.141956v0.074926zM122.72301 114.539336" fill="currentColor" p-id="22670"></path></svg>