<?xml version="1.0" standalone="no"?><!DOCTYPE svg PUBLIC "-//W3C//DTD SVG 1.1//EN" "http://www.w3.org/Graphics/SVG/1.1/DTD/svg11.dtd"><svg t="1647706089263" class="icon" viewBox="0 0 1024 1024" version="1.1" xmlns="http://www.w3.org/2000/svg" p-id="6281" xmlns:xlink="http://www.w3.org/1999/xlink" width="128" height="128"><defs><style type="text/css">@font-face { font-family: feedback-iconfont; src: url("//at.alicdn.com/t/font_1031158_u69w8yhxdu.woff2?t=1630033759944") format("woff2"), url("//at.alicdn.com/t/font_1031158_u69w8yhxdu.woff?t=1630033759944") format("woff"), url("//at.alicdn.com/t/font_1031158_u69w8yhxdu.ttf?t=1630033759944") format("truetype"); }
</style></defs><path d="M742.832175 461.155909h125.076465a50.844091 50.844091 0 0 1 0 101.688182h-137.787488l27.455809 27.45581A50.844091 50.844091 0 1 1 685.378352 660.973188l-107.789474-106.772592a50.844091 50.844091 0 0 1 0-71.690169l107.789474-107.789474a50.844091 50.844091 0 1 1 72.198609 71.690169z m-586.740815-305.064549h711.81728a50.844091 50.844091 0 0 1 0 101.688183h-711.81728a50.844091 50.844091 0 0 1 0-101.688183z m0 305.064549h305.064549a50.844091 50.844091 0 1 1 0 101.688182h-305.064549a50.844091 50.844091 0 0 1 0-101.688182z m0 305.064548h711.81728a50.844091 50.844091 0 0 1 0 101.688183h-711.81728a50.844091 50.844091 0 0 1 0-101.688183z" fill="#666666" p-id="6282"></path></svg>