<?xml version="1.0" standalone="no"?><!DOCTYPE svg PUBLIC "-//W3C//DTD SVG 1.1//EN" "http://www.w3.org/Graphics/SVG/1.1/DTD/svg11.dtd"><svg t="1648102349474" class="icon" viewBox="0 0 1024 1024" version="1.1" xmlns="http://www.w3.org/2000/svg" p-id="37250" xmlns:xlink="http://www.w3.org/1999/xlink" width="128" height="128"><defs><style type="text/css">@font-face { font-family: feedback-iconfont; src: url("//at.alicdn.com/t/font_1031158_u69w8yhxdu.woff2?t=1630033759944") format("woff2"), url("//at.alicdn.com/t/font_1031158_u69w8yhxdu.woff?t=1630033759944") format("woff"), url("//at.alicdn.com/t/font_1031158_u69w8yhxdu.ttf?t=1630033759944") format("truetype"); }
</style></defs><path d="M511.238 96.52c-229.185 0-414.973 185.79-414.973 414.973 0 229.183 185.79 414.974 414.973 414.974 229.182 0 414.972-185.79 414.972-414.974 0-229.183-185.79-414.973-414.972-414.973z m137.56 547.053c0 75.973-61.589 137.56-137.56 137.56-75.974 0-137.564-61.587-137.564-137.56v-36.33h275.123l0.001 36.33z" fill="#FADB63" p-id="37251"></path><path d="M511.238 957.165c-60.152 0-118.521-11.789-173.485-35.035-53.074-22.45-100.733-54.58-141.653-95.5s-73.051-88.579-95.5-141.652c-23.247-54.965-35.035-113.334-35.035-173.486s11.788-118.52 35.035-173.485c22.449-53.074 54.579-100.732 95.499-141.652 40.919-40.92 88.58-73.05 141.653-95.499C392.716 77.608 451.085 65.82 511.237 65.82c60.151 0 118.52 11.788 173.484 35.036 53.074 22.448 100.733 54.578 141.652 95.5 40.92 40.919 73.051 88.577 95.498 141.651 23.249 54.965 35.036 113.333 35.036 173.485s-11.788 118.52-35.036 173.486c-22.448 53.073-54.578 100.732-95.498 141.653-40.918 40.92-88.578 73.05-141.652 95.499-54.964 23.247-113.332 35.035-173.483 35.035z m0-829.946c-211.889 0-384.274 172.385-384.274 384.274 0 211.89 172.385 384.274 384.274 384.274s384.273-172.385 384.273-384.274c0-211.89-172.385-384.274-384.273-384.274z" fill="#663300" p-id="37252"></path><path d="M310.939 407.547a52.499 52.499 0 1 0 104.998 0 52.499 52.499 0 1 0-104.998 0zM606.539 407.547a52.498 52.498 0 1 0 104.995 0 52.498 52.498 0 1 0-104.995 0zM511.238 806.716c-89.959 0-163.146-73.186-163.146-163.143v-36.33c0-14.13 11.454-25.583 25.583-25.583h275.123c14.129 0 25.583 11.453 25.583 25.582v36.33c0 89.958-73.185 163.144-163.143 163.144z m-111.98-173.891v10.748c0 61.745 50.234 111.978 111.98 111.978 61.745 0 111.979-50.233 111.978-111.978v-10.748H399.258z" fill="#663300" p-id="37253"></path></svg>