<?xml version="1.0" standalone="no"?><!DOCTYPE svg PUBLIC "-//W3C//DTD SVG 1.1//EN" "http://www.w3.org/Graphics/SVG/1.1/DTD/svg11.dtd"><svg t="1647960688485" class="icon" viewBox="0 0 1024 1024" version="1.1" xmlns="http://www.w3.org/2000/svg" p-id="9559" xmlns:xlink="http://www.w3.org/1999/xlink" width="128" height="128"><defs><style type="text/css">@font-face { font-family: feedback-iconfont; src: url("//at.alicdn.com/t/font_1031158_u69w8yhxdu.woff2?t=1630033759944") format("woff2"), url("//at.alicdn.com/t/font_1031158_u69w8yhxdu.woff?t=1630033759944") format("woff"), url("//at.alicdn.com/t/font_1031158_u69w8yhxdu.ttf?t=1630033759944") format("truetype"); }
</style></defs><path d="M826.026667 783.36L645.12 602.453333h-1.706667c-5.12 6.826667-10.24 13.653333-17.066666 18.773334-6.826667 6.826667-11.946667 11.946667-18.773334 17.066666v1.706667L790.186667 819.2c6.826667 6.826667 13.653333 6.826667 18.773333 6.826667s11.946667-1.706667 18.773333-6.826667c6.826667-6.826667 6.826667-13.653333 6.826667-18.773333s-1.706667-11.946667-8.533333-17.066667z" fill="#78BDCC" p-id="9560"></path><path d="M861.866667 745.813333L680.96 564.906667c-3.413333-3.413333-5.12-5.12-8.533333-6.826667 59.733333-107.52 46.08-245.76-46.08-337.92-54.613333-54.613333-126.293333-81.92-199.68-81.92S283.306667 167.253333 228.693333 221.866667C119.466667 331.093333 119.466667 510.293333 228.693333 619.52c54.613333 54.613333 126.293333 81.92 199.68 81.92 47.786667 0 95.573333-11.946667 138.24-35.84 1.706667 3.413333 3.413333 5.12 6.826667 8.533333l180.906667 180.906667c15.36 15.36 34.133333 22.186667 54.613333 22.186667s39.253333-6.826667 54.613333-22.186667c29.013333-30.72 29.013333-78.506667-1.706666-109.226667z m-597.333334-162.133333c-90.453333-90.453333-90.453333-235.52 0-325.973333 42.666667-42.666667 100.693333-68.266667 162.133334-68.266667s119.466667 23.893333 162.133333 68.266667c90.453333 90.453333 90.453333 235.52 0 325.973333-42.666667 42.666667-100.693333 68.266667-162.133333 68.266667s-117.76-25.6-162.133334-68.266667zM826.026667 819.2c-6.826667 6.826667-13.653333 6.826667-18.773334 6.826667s-11.946667-1.706667-18.773333-6.826667L609.28 638.293333v-1.706666c6.826667-5.12 11.946667-10.24 18.773333-17.066667 6.826667-6.826667 11.946667-11.946667 17.066667-18.773333h1.706667l180.906666 180.906666c6.826667 6.826667 6.826667 13.653333 6.826667 18.773334s-1.706667 11.946667-8.533333 18.773333z" fill="#335056" p-id="9561"></path><path d="M453.973333 293.546667h-51.2v102.4h-102.4v51.2h102.4v102.4h51.2v-102.4h102.4v-51.2h-102.4z" fill="#335056" p-id="9562"></path></svg>