<?xml version="1.0" standalone="no"?><!DOCTYPE svg PUBLIC "-//W3C//DTD SVG 1.1//EN" "http://www.w3.org/Graphics/SVG/1.1/DTD/svg11.dtd"><svg t="1647957688326" class="icon" viewBox="0 0 1024 1024" version="1.1" xmlns="http://www.w3.org/2000/svg" p-id="4153" xmlns:xlink="http://www.w3.org/1999/xlink" width="128" height="128"><defs><style type="text/css">@font-face { font-family: feedback-iconfont; src: url("//at.alicdn.com/t/font_1031158_u69w8yhxdu.woff2?t=1630033759944") format("woff2"), url("//at.alicdn.com/t/font_1031158_u69w8yhxdu.woff?t=1630033759944") format("woff"), url("//at.alicdn.com/t/font_1031158_u69w8yhxdu.ttf?t=1630033759944") format("truetype"); }
</style></defs><path d="M889 1024H135C60.6 1024 0 963.4 0 889V135C0 60.6 60.6 0 135 0h754c74.4 0 135 60.6 135 135v754c0 74.4-60.6 135-135 135zM135 90c-24.8 0-45 20.2-45 45v754c0 24.8 20.2 45 45 45h754c24.8 0 45-20.2 45-45V135c0-24.8-20.2-45-45-45H135z" p-id="4154"></path><path d="M435 480H219c-24.9 0-45-20.1-45-45s20.1-45 45-45h216c24.9 0 45 20.1 45 45s-20.1 45-45 45z" p-id="4155"></path><path d="M435 480c-24.9 0-45-20.1-45-45V219c0-24.9 20.1-45 45-45s45 20.1 45 45v216c0 24.9-20.1 45-45 45z" p-id="4156"></path><path d="M381.2 425.6c-11.5 0-23-4.4-31.8-13.2L196.6 259.7c-17.6-17.6-17.6-46.1 0-63.6 17.6-17.6 46.1-17.6 63.6 0L413 348.8c17.6 17.6 17.6 46.1 0 63.6-8.8 8.9-20.3 13.2-31.8 13.2z" p-id="4157"></path><path d="M805 634H589c-24.9 0-45-20.1-45-45s20.1-45 45-45h216c24.9 0 45 20.1 45 45s-20.1 45-45 45z" p-id="4158"></path><path d="M589 850c-24.9 0-45-20.1-45-45V589c0-24.9 20.1-45 45-45s45 20.1 45 45v216c0 24.9-20.1 45-45 45z" p-id="4159"></path><path d="M795.5 841.1c-11.5 0-23-4.4-31.8-13.2L611 675.2c-17.6-17.6-17.6-46.1 0-63.6 17.6-17.6 46.1-17.6 63.6 0l152.7 152.7c17.6 17.6 17.6 46.1 0 63.6-8.7 8.8-20.2 13.2-31.8 13.2z" p-id="4160"></path></svg>