<?xml version="1.0" standalone="no"?><!DOCTYPE svg PUBLIC "-//W3C//DTD SVG 1.1//EN" "http://www.w3.org/Graphics/SVG/1.1/DTD/svg11.dtd"><svg t="1647965167256" class="icon" viewBox="0 0 1024 1024" version="1.1" xmlns="http://www.w3.org/2000/svg" p-id="14751" xmlns:xlink="http://www.w3.org/1999/xlink" width="128" height="128"><defs><style type="text/css">@font-face { font-family: feedback-iconfont; src: url("//at.alicdn.com/t/font_1031158_u69w8yhxdu.woff2?t=1630033759944") format("woff2"), url("//at.alicdn.com/t/font_1031158_u69w8yhxdu.woff?t=1630033759944") format("woff"), url("//at.alicdn.com/t/font_1031158_u69w8yhxdu.ttf?t=1630033759944") format("truetype"); }
</style></defs><path d="M750.72 898.133333h-101.333333a128 128 0 0 1-128-128v-42.666666a128 128 0 0 1 128-128h101.973333a128 128 0 0 1 131.413333-64V128a128 128 0 0 0-128-128H128a128 128 0 0 0-128 128v768a128 128 0 0 0 128 128h626.346667a128 128 0 0 0 107.946666-59.52 128 128 0 0 1-111.573333-66.346667z" fill="#4499FF" p-id="14752"></path><path d="M1006.08 716.16l-118.4-87.253333a42.666667 42.666667 0 0 0-68.48 34.56v21.333333h-170.666667a42.666667 42.666667 0 0 0-42.666666 42.666667v42.666666a42.666667 42.666667 0 0 0 42.666666 42.666667h170.666667v22.826667a42.666667 42.666667 0 0 0 68.053333 34.986666l118.4-85.333333a42.666667 42.666667 0 0 0 0.426667-69.12z" fill="#FF9910" p-id="14753"></path><path d="M430.08 654.506667a42.666667 42.666667 0 0 1-42.666667 42.666666h-213.333333a42.666667 42.666667 0 0 1-42.666667-42.666666 42.666667 42.666667 0 0 1 42.666667-42.666667h213.333333a42.666667 42.666667 0 0 1 42.666667 42.666667zM430.08 821.546667a42.666667 42.666667 0 0 1-42.666667 42.666666h-213.333333a42.666667 42.666667 0 0 1-42.666667-42.666666 42.666667 42.666667 0 0 1 42.666667-42.666667h213.333333a42.666667 42.666667 0 0 1 42.666667 42.666667z" fill="#F0F0F0" p-id="14754"></path><path d="M181.76 331.52H123.946667v96.853333a27.306667 27.306667 0 0 1-27.306667 27.306667 27.306667 27.306667 0 0 1-27.306667-27.306667V132.906667h110.933334q110.933333 1.706667 112.426666 97.706666-1.706667 99.2-110.933333 100.906667z m3.413333-149.333333H123.946667v97.706666h62.933333a44.586667 44.586667 0 0 0 49.706667-51.2q-0.213333-46.08-51.413334-46.08zM436.693333 455.68h-106.666666V132.906667h109.226666q144 4.906667 149.333334 160.426666-1.493333 162.346667-151.893334 162.346667z m0-273.066667H384V405.333333h52.906667q97.706667 1.706667 96-110.933333t-96.213334-111.786667zM832 182.613333h-147.2v81.066667h128v49.706667h-128v114.986666a27.306667 27.306667 0 0 1-27.306667 27.306667 27.306667 27.306667 0 0 1-27.306666-27.306667V132.906667H832z" fill="#FFFFFF" p-id="14755"></path></svg>