<?xml version="1.0" standalone="no"?><!DOCTYPE svg PUBLIC "-//W3C//DTD SVG 1.1//EN" "http://www.w3.org/Graphics/SVG/1.1/DTD/svg11.dtd"><svg t="1647269419636" class="icon" viewBox="0 0 1024 1024" version="1.1" xmlns="http://www.w3.org/2000/svg" p-id="27847" xmlns:xlink="http://www.w3.org/1999/xlink" width="128" height="128"><defs><style type="text/css"></style></defs><path d="M512 928A416 416 0 1 1 928 512 416 416 0 0 1 512 928z m0-768A352 352 0 1 0 864 512 352 352 0 0 0 512 160z m192 448H512a32 32 0 0 1-32-32V320a32 32 0 0 1 64 0v224H704a32 32 0 0 1 0 64z" fill="#currentColor" p-id="27848"></path></svg>