<?xml version="1.0" standalone="no"?><!DOCTYPE svg PUBLIC "-//W3C//DTD SVG 1.1//EN" "http://www.w3.org/Graphics/SVG/1.1/DTD/svg11.dtd"><svg t="1647960670523" class="icon" viewBox="0 0 1024 1024" version="1.1" xmlns="http://www.w3.org/2000/svg" p-id="8717" xmlns:xlink="http://www.w3.org/1999/xlink" width="128" height="128"><defs><style type="text/css">@font-face { font-family: feedback-iconfont; src: url("//at.alicdn.com/t/font_1031158_u69w8yhxdu.woff2?t=1630033759944") format("woff2"), url("//at.alicdn.com/t/font_1031158_u69w8yhxdu.woff?t=1630033759944") format("woff"), url("//at.alicdn.com/t/font_1031158_u69w8yhxdu.ttf?t=1630033759944") format("truetype"); }
</style></defs><path d="M861.866667 762.88L680.96 581.973333c-3.413333-3.413333-5.12-5.12-8.533333-6.826666 59.733333-107.52 44.373333-245.76-46.08-336.213334-54.613333-54.613333-126.293333-81.92-199.68-81.92s-143.36 27.306667-199.68 81.92C119.466667 348.16 119.466667 527.36 228.693333 636.586667c54.613333 54.613333 126.293333 81.92 199.68 81.92 47.786667 0 95.573333-11.946667 138.24-35.84 1.706667 3.413333 5.12 5.12 6.826667 8.533333l180.906667 180.906667c15.36 15.36 34.133333 22.186667 54.613333 22.186666s39.253333-6.826667 54.613333-22.186666c29.013333-30.72 29.013333-78.506667-1.706666-109.226667z m-433.493334-93.866667c-61.44 0-119.466667-23.893333-162.133333-68.266666-90.453333-90.453333-90.453333-235.52 0-325.973334 42.666667-42.666667 100.693333-68.266667 162.133333-68.266666s119.466667 23.893333 162.133334 68.266666c90.453333 90.453333 90.453333 235.52 0 325.973334-42.666667 42.666667-100.693333 68.266667-162.133334 68.266666zM826.026667 836.266667c-6.826667 6.826667-13.653333 6.826667-18.773334 6.826666s-11.946667-1.706667-18.773333-6.826666L609.28 655.36v-1.706667c6.826667-5.12 13.653333-10.24 18.773333-17.066666s11.946667-11.946667 17.066667-18.773334h1.706667l180.906666 180.906667c6.826667 6.826667 6.826667 13.653333 6.826667 18.773333s-1.706667 11.946667-8.533333 18.773334z" fill="#335056" p-id="8718"></path><path d="M300.373333 413.013333h256v51.2h-256z" fill="#335056" p-id="8719"></path><path d="M609.28 655.36L790.186667 836.266667c6.826667 6.826667 13.653333 6.826667 18.773333 6.826666s11.946667-1.706667 18.773333-6.826666c6.826667-6.826667 6.826667-13.653333 6.826667-18.773334s-1.706667-11.946667-6.826667-18.773333L645.12 619.52h-1.706667c-5.12 6.826667-10.24 13.653333-17.066666 18.773333s-11.946667 10.24-17.066667 17.066667c0-1.706667 0 0 0 0z" fill="#78BDCC" p-id="8720"></path></svg>