<?xml version="1.0" standalone="no"?><!DOCTYPE svg PUBLIC "-//W3C//DTD SVG 1.1//EN" "http://www.w3.org/Graphics/SVG/1.1/DTD/svg11.dtd"><svg t="1647324199233" class="icon" viewBox="0 0 1024 1024" version="1.1" xmlns="http://www.w3.org/2000/svg" p-id="2446" xmlns:xlink="http://www.w3.org/1999/xlink" width="128" height="128"><defs><style type="text/css"></style></defs><path d="M96 243h97.5v60H96zM96 360h97.5v60H96zM96 482h97.5v60H96zM96 601h97.5v60H96z" fill="#47444F" p-id="2447"></path><path d="M838.9 64H282.5c-46.3 0-84.5 35.7-88.7 81.2V243h63.4v60h-63.4v57h63.4v60h-63.4v62h63.4v60h-63.4v59h63.4v60h-63.4v152h-0.4v57.4c0 49.4 40 89.6 89.1 89.6h556.3c49.1 0 89.1-40.2 89.1-89.6V153.6c0.1-49.4-39.9-89.6-89-89.6z m-29.7 358.4H333.9v-0.4h47.8V183h416.9v239h10.6v0.4z" fill="currentColor" p-id="2448"></path></svg>