<?xml version="1.0" standalone="no"?><!DOCTYPE svg PUBLIC "-//W3C//DTD SVG 1.1//EN" "http://www.w3.org/Graphics/SVG/1.1/DTD/svg11.dtd"><svg t="1647255674523" class="icon" viewBox="0 0 1024 1024" version="1.1" xmlns="http://www.w3.org/2000/svg" p-id="77732" xmlns:xlink="http://www.w3.org/1999/xlink" width="128" height="128"><defs><style type="text/css"></style></defs><path d="M920 760H336a8 8 0 0 0-8 8v56a8 8 0 0 0 8 8h584a8 8 0 0 0 8-8V768a8 8 0 0 0-8-8z m0-568H336a8 8 0 0 0-8 8V256a8 8 0 0 0 8 8h584A8 8 0 0 0 928 256V200a8 8 0 0 0-8-8z m0 284.16H336a8 8 0 0 0-8 7.68v56.32a8 8 0 0 0 8 7.68h584a8 8 0 0 0 8-7.68v-56.32a8 8 0 0 0-8-7.68z m-704 235.84H99.84a4.16 4.16 0 0 0-3.84 4.16v33.92a3.84 3.84 0 0 0 3.84 3.84h72.64v20.48H136.64a3.84 3.84 0 0 0-3.84 4.16v33.92a3.84 3.84 0 0 0 3.84 4.16h35.84v21.44H99.84a3.84 3.84 0 0 0-3.84 3.84v34.24a4.16 4.16 0 0 0 3.84 3.84h116.16a4.16 4.16 0 0 0 4.16-3.84v-160a4.16 4.16 0 0 0-4.16-4.16zM99.84 188.16h38.08v119.68a4.16 4.16 0 0 0 4.16 4.16h40a3.84 3.84 0 0 0 3.84-4.16V152a8 8 0 0 0-8-8H99.84a4.16 4.16 0 0 0-3.84 3.84v36.16a4.16 4.16 0 0 0 3.84 4.16z m116.16 240H99.84a3.84 3.84 0 0 0-3.84 3.84v35.84a4.16 4.16 0 0 0 3.84 4.16h68.48l-70.08 77.76a7.04 7.04 0 0 0-2.24 5.44v36.8a3.84 3.84 0 0 0 3.84 3.84h116.16a3.84 3.84 0 0 0 4.16-3.84v-35.84a4.16 4.16 0 0 0-4.16-4.16H147.52l70.4-77.76a8.32 8.32 0 0 0 2.24-5.44V432a3.84 3.84 0 0 0-4.16-3.84z" p-id="77733"></path></svg>