<?xml version="1.0" standalone="no"?><!DOCTYPE svg PUBLIC "-//W3C//DTD SVG 1.1//EN" "http://www.w3.org/Graphics/SVG/1.1/DTD/svg11.dtd"><svg t="1647167994675" class="icon" viewBox="0 0 1024 1024" version="1.1" xmlns="http://www.w3.org/2000/svg" p-id="40332" xmlns:xlink="http://www.w3.org/1999/xlink" width="128" height="128"><defs><style type="text/css"></style></defs><path d="M48.761905 102.4h809.447619v848.457143h-809.447619z" fill="#b79664" p-id="40333"></path><path d="M73.142857 121.904762h755.809524V906.971429H73.142857z" fill="#f8db9c" p-id="40334"></path><path d="M107.27619 151.161905h716.8v750.933333h-716.8z" fill="#f3c767" p-id="40335"></path><path d="M926.47619 965.485714h-551.009523v-585.142857h375.466666v-29.257143h-409.6v648.533334h619.276191v-443.733334h-34.133334z" fill="#adbcce" p-id="40336"></path><path d="M375.466667 965.485714h551.009523v-409.6h-175.542857v-175.542857h-375.466666z" fill="#ffffff" p-id="40337"></path><path d="M960.609524 555.885714v-29.257143h-175.542857v-175.542857h-34.133334v204.8z" fill="#5a6d81" p-id="40338"></path><path d="M785.066667 526.628571h92.647619l-92.647619-126.780952z" fill="#ffffff" p-id="40339"></path><path d="M799.695238 365.714286l-14.628571-14.628572-19.504762 19.504762 19.504762 29.257143v-34.133333zM887.466667 541.257143l43.885714-9.752381-4.876191-4.876191h-48.761904z" fill="#5a6d81" p-id="40340"></path><path d="M785.066667 365.714286v34.133333l92.647619 126.780952h48.761904l-126.780952-160.914285z" fill="#5a6d81" p-id="40341"></path><path d="M419.352381 458.361905h268.190476v34.133333h-268.190476zM419.352381 526.628571h268.190476v34.133334h-268.190476zM414.47619 594.895238h268.190477v34.133333H414.47619zM414.47619 668.038095h458.361905v34.133334H414.47619zM414.47619 736.304762h458.361905v34.133333H414.47619zM414.47619 799.695238h458.361905v34.133333H414.47619zM419.352381 872.838095h458.361905v34.133334h-458.361905z" fill="#dbdde1" p-id="40342"></path><path d="M551.009524 107.27619c0-53.638095-43.885714-97.52381-97.52381-97.523809s-97.52381 43.885714-97.523809 97.523809h-121.904762v121.904762h429.104762v-121.904762h-112.152381z m-68.266667 19.504762h-58.514286v-58.514285h58.514286v58.514285z" fill="#616c71" p-id="40343"></path><path d="M648.533333 117.028571h-102.4c0-43.885714-39.009524-82.895238-87.771428-82.895238s-82.895238 34.133333-82.895238 82.895238h-117.028572v92.647619h390.095238v-92.647619z m-165.790476 9.752381h-58.514286v-58.514285h58.514286v58.514285z" fill="#ffffff" p-id="40344"></path><path d="M336.457143 199.92381h312.07619v24.380952h-312.07619z" fill="#616c71" p-id="40345"></path></svg>