<?xml version="1.0" standalone="no"?><!DOCTYPE svg PUBLIC "-//W3C//DTD SVG 1.1//EN" "http://www.w3.org/Graphics/SVG/1.1/DTD/svg11.dtd"><svg t="1647836437561" class="icon" viewBox="0 0 1323 1024" version="1.1" xmlns="http://www.w3.org/2000/svg" p-id="19422" xmlns:xlink="http://www.w3.org/1999/xlink" width="165.375" height="128"><defs><style type="text/css">@font-face { font-family: feedback-iconfont; src: url("//at.alicdn.com/t/font_1031158_u69w8yhxdu.woff2?t=1630033759944") format("woff2"), url("//at.alicdn.com/t/font_1031158_u69w8yhxdu.woff?t=1630033759944") format("woff"), url("//at.alicdn.com/t/font_1031158_u69w8yhxdu.ttf?t=1630033759944") format("truetype"); }
</style></defs><path d="M400.808081 276.686869m-116.363637 0a116.363636 116.363636 0 1 0 232.727273 0 116.363636 116.363636 0 1 0-232.727273 0Z" fill="#FFCC66" p-id="19423"></path><path d="M53.010101 34.753939h1224.543677v947.117253H53.010101z" fill="#81C5E8" p-id="19424"></path><path d="M956.493576 611.333172S1176.565657 308.906667 1176.565657 499.070707c0 111.191919 0 0 0 0v393.050505l-220.072081-280.78804z" fill="#4D758A" p-id="19425"></path><path d="M1009.157172 990.383838l167.408485-98.262626c-82.747475-116.337778-186.347313-258.415192-346.329213-411.058424-159.237172-176.676202-211.12501 249.985293-411.513535 133.280323C218.334384 497.638141 93.090909 909.34303 93.090909 909.34303v81.040808h916.066263z" fill="#4D758A" opacity=".6" p-id="19426"></path><path d="M1251.695192 133.60097V60.612525H78.868687v895.400081h70.247434v8.512647h1102.579071V120.232081H1176.565657V892.121212H149.116121V133.60097z" fill="#F0F0FF" p-id="19427"></path><path d="M53.010101 60.612525h1224.543677a25.858586 25.858586 0 0 1-25.858586-25.858586v947.117253c0-14.289455 11.574303-25.858586 25.858586-25.858586H53.010101a25.858586 25.858586 0 0 1 25.858586 25.858586V34.753939a25.858586 25.858586 0 0 1-25.858586 25.858586z m0 947.117253h1224.543677c14.289455 0 25.858586-11.569131 25.858586-25.858586V34.753939a25.858586 25.858586 0 0 0-25.858586-25.858585H53.010101a25.858586 25.858586 0 0 0-25.858586 25.858585v947.117253a25.858586 25.858586 0 0 0 25.858586 25.858586z" fill="#6E6E96" p-id="19428"></path><path d="M411.844525 339.440485m-98.955636 0a98.955636 98.955636 0 1 0 197.911273 0 98.955636 98.955636 0 1 0-197.911273 0Z" fill="#FFDD9F" p-id="19429"></path><path d="M529.10804 625.953616C426.666667 674.345374 359.434343 782.951434 338.747475 892.121212H149.116121v-118.478869s27.425616-178.336323 178.346667-178.336323c150.921051-0.005172 108.419879 52.291232 201.645252 30.647596z" fill="#548096" p-id="19430"></path></svg>