<?xml version="1.0" standalone="no"?><!DOCTYPE svg PUBLIC "-//W3C//DTD SVG 1.1//EN" "http://www.w3.org/Graphics/SVG/1.1/DTD/svg11.dtd"><svg t="1648028625765" class="icon" viewBox="0 0 1024 1024" version="1.1" xmlns="http://www.w3.org/2000/svg" p-id="2346" xmlns:xlink="http://www.w3.org/1999/xlink" width="128" height="128"><defs><style type="text/css">@font-face { font-family: feedback-iconfont; src: url("//at.alicdn.com/t/font_1031158_u69w8yhxdu.woff2?t=1630033759944") format("woff2"), url("//at.alicdn.com/t/font_1031158_u69w8yhxdu.woff?t=1630033759944") format("woff"), url("//at.alicdn.com/t/font_1031158_u69w8yhxdu.ttf?t=1630033759944") format("truetype"); }
</style></defs><path d="M0 0m0 0l1024 0q0 0 0 0l0 1024q0 0 0 0l-1024 0q0 0 0 0l0-1024q0 0 0 0Z" fill="#E8EFF8" p-id="2347"></path><path d="M861.090909 500.363636C861.090909 699.578182 699.578182 861.090909 500.363636 861.090909 301.149091 861.090909 139.636364 699.578182 139.636364 500.363636 139.636364 301.149091 301.149091 139.636364 500.363636 139.636364 699.578182 139.636364 861.090909 301.149091 861.090909 500.363636z" fill="#9BB9EF" p-id="2348"></path><path d="M407.272727 418.909091a34.909091 34.909091 0 0 1 69.818182 0v162.909091a34.909091 34.909091 0 1 1-69.818182 0v-162.909091z m116.363637 0a34.909091 34.909091 0 1 1 69.818181 0v162.909091a34.909091 34.909091 0 1 1-69.818181 0v-162.909091z" fill="#247ADE" p-id="2349"></path></svg>