<?xml version="1.0" standalone="no"?><!DOCTYPE svg PUBLIC "-//W3C//DTD SVG 1.1//EN" "http://www.w3.org/Graphics/SVG/1.1/DTD/svg11.dtd"><svg t="1648033416597" class="icon" viewBox="0 0 1024 1024" version="1.1" xmlns="http://www.w3.org/2000/svg" p-id="7978" xmlns:xlink="http://www.w3.org/1999/xlink" width="128" height="128"><defs><style type="text/css">@font-face { font-family: feedback-iconfont; src: url("//at.alicdn.com/t/font_1031158_u69w8yhxdu.woff2?t=1630033759944") format("woff2"), url("//at.alicdn.com/t/font_1031158_u69w8yhxdu.woff?t=1630033759944") format("woff"), url("//at.alicdn.com/t/font_1031158_u69w8yhxdu.ttf?t=1630033759944") format("truetype"); }
</style></defs><path d="M520.533333 878.933333c-64.853333 0-126.293333-17.066667-179.2-46.08-51.2 13.653333-98.986667 13.653333-114.346666 13.653334-29.013333 0-100.693333-22.186667-49.493334-49.493334 22.186667-11.946667 37.546667-37.546667 47.786667-63.146666-49.493333-63.146667-80.213333-143.36-80.213333-230.4 0-208.213333 167.253333-375.466667 375.466666-375.466667s375.466667 167.253333 375.466667 375.466667-167.253333 375.466667-375.466667 375.466666z m182.613334-259.413333l-148.48-307.2c-8.533333-17.066667-29.013333-23.893333-46.08-15.36-6.826667 3.413333-11.946667 8.533333-15.36 15.36-1.706667 1.706667-3.413333 3.413333-3.413334 6.826667l-151.893333 307.2c-8.533333 17.066667-1.706667 37.546667 17.066667 46.08 17.066667 8.533333 37.546667 1.706667 46.08-15.36l32.426666-66.56h105.813334c18.773333 0 34.133333-15.36 34.133333-34.133334s-15.36-34.133333-34.133333-34.133333h-71.68l56.32-114.346667L641.706667 648.533333c8.533333 17.066667 29.013333 23.893333 46.08 15.36 15.36-6.826667 22.186667-27.306667 15.36-44.373333z" fill="" p-id="7979"></path></svg>