<?xml version="1.0" standalone="no"?><!DOCTYPE svg PUBLIC "-//W3C//DTD SVG 1.1//EN" "http://www.w3.org/Graphics/SVG/1.1/DTD/svg11.dtd"><svg t="1647962052661" class="icon" viewBox="0 0 1024 1024" version="1.1" xmlns="http://www.w3.org/2000/svg" p-id="11046" xmlns:xlink="http://www.w3.org/1999/xlink" width="128" height="128"><defs><style type="text/css">@font-face { font-family: feedback-iconfont; src: url("//at.alicdn.com/t/font_1031158_u69w8yhxdu.woff2?t=1630033759944") format("woff2"), url("//at.alicdn.com/t/font_1031158_u69w8yhxdu.woff?t=1630033759944") format("woff"), url("//at.alicdn.com/t/font_1031158_u69w8yhxdu.ttf?t=1630033759944") format("truetype"); }
</style></defs><path d="M511.999998 393.829624c-21.750373 0-39.382962 17.632589-39.382962 39.382962s17.632589 39.382962 39.382962 39.382962c21.750373 0 39.382962-17.632589 39.382962-39.382962S533.750371 393.829624 511.999998 393.829624zM275.702224 236.297774c-21.750373 0-39.382962 17.632589-39.382962 39.382962l0 472.595548c0 21.750373 17.632589 39.382962 39.382962 39.382962s39.382962-17.632589 39.382962-39.382962L315.085186 275.680736C315.085186 253.930363 297.452597 236.297774 275.702224 236.297774zM511.999998 551.361473c-21.750373 0-39.382962 17.632589-39.382962 39.382962s17.632589 39.382962 39.382962 39.382962c21.750373 0 39.382962-17.632589 39.382962-39.382962S533.750371 551.361473 511.999998 551.361473zM866.446659 0 157.553337 0c-87.002516 0-157.531849 70.529333-157.531849 157.531849l0 708.893322c0 87.002516 70.529333 157.531849 157.531849 157.531849l708.893322 0c87.002516 0 157.531849-70.529333 157.531849-157.531849L1023.978509 157.531849C1023.978509 70.529333 953.449175 0 866.446659 0zM945.212584 866.425172c0 43.500746-35.265178 78.765925-78.765925 78.765925L157.553337 945.191096c-43.500746 0-78.765925-35.265178-78.765925-78.765925L78.787412 157.531849c0-43.500746 35.264155-78.765925 78.765925-78.765925l708.893322 0c43.500746 0 78.765925 35.264155 78.765925 78.765925L945.212584 866.425172zM748.297772 236.297774c-21.750373 0-39.382962 17.632589-39.382962 39.382962l0 472.595548c0 21.750373 17.632589 39.382962 39.382962 39.382962 21.750373 0 39.382962-17.632589 39.382962-39.382962L787.680734 275.680736C787.680734 253.930363 770.048145 236.297774 748.297772 236.297774z" p-id="11047"></path></svg>