<?xml version="1.0" standalone="no"?><!DOCTYPE svg PUBLIC "-//W3C//DTD SVG 1.1//EN" "http://www.w3.org/Graphics/SVG/1.1/DTD/svg11.dtd"><svg t="1647167939027" class="icon" viewBox="0 0 1024 1024" version="1.1" xmlns="http://www.w3.org/2000/svg" p-id="36504" xmlns:xlink="http://www.w3.org/1999/xlink" width="128" height="128"><defs><style type="text/css"></style></defs><path d="M686.535111 710.371556c17.180444 0 33.393778 3.157333 48.64 9.472a125.269333 125.269333 0 0 1 39.879111 26.055111 119.978667 119.978667 0 0 1 36.010667 85.76c0 16.782222-3.242667 32.540444-9.728 47.388444-6.485333 14.535111-15.246222 27.306667-26.282667 38.4a125.269333 125.269333 0 0 1-39.879111 26.055111 125.752889 125.752889 0 0 1-48.64 9.472 122.197333 122.197333 0 0 1-48.156444-9.472 125.269333 125.269333 0 0 1-39.879111-26.055111 123.164444 123.164444 0 0 1-26.766223-38.4 117.048889 117.048889 0 0 1-9.728-47.388444c0-22.101333 5.518222-42.154667 16.526223-60.16 11.036444-18.318222 25.628444-32.995556 43.804444-44.088889l-109.937778-231.68-109.937778 231.708444a128.227556 128.227556 0 0 1 43.776 44.060445 112.924444 112.924444 0 0 1 16.526223 60.16c0 16.782222-3.242667 32.540444-9.728 47.388444a123.164444 123.164444 0 0 1-26.737778 38.4c-11.377778 11.036444-24.462222 19.740444-39.395556 26.055111a125.752889 125.752889 0 0 1-48.64 9.472 125.752889 125.752889 0 0 1-48.64-9.472 119.637333 119.637333 0 0 1-39.424-26.055111 123.164444 123.164444 0 0 1-26.737777-38.4 117.048889 117.048889 0 0 1-9.728-47.388444c0-16.725333 3.242667-32.512 9.728-47.36 6.485333-14.848 15.388444-27.648 26.737777-38.4 11.036444-11.036444 24.177778-19.740444 39.395556-26.055111a125.752889 125.752889 0 0 1 48.64-9.472c11.036444 0 20.935111 1.109333 29.696 3.328l125.013333-258.702223L387.868444 233.244444l-41.358222-162.048 165.888 343.978667 165.859556-343.978667L636.928 233.244444l-105.073778 221.752889 125.013334 258.702223a121.457778 121.457778 0 0 1 29.667555-3.328z m-348.273778 193.792a75.463111 75.463111 0 0 0 68.579556-44.088889c3.896889-8.817778 5.831111-18.289778 5.831111-28.416 0-10.097778-1.934222-19.569778-5.831111-28.416a73.272889 73.272889 0 0 0-16.071111-23.210667 75.463111 75.463111 0 0 0-52.508445-21.333333 75.463111 75.463111 0 0 0-53.020444 21.333333c-6.826667 6.627556-12.174222 14.364444-16.071111 23.210667-3.896889 8.846222-5.831111 18.318222-5.831111 28.444444 0 10.097778 1.934222 19.569778 5.831111 28.416a75.463111 75.463111 0 0 0 69.063111 44.088889z m348.273778 0a75.463111 75.463111 0 0 0 69.063111-44.088889c3.896889-8.817778 5.831111-18.289778 5.831111-28.416 0-10.097778-1.934222-19.569778-5.831111-28.416a73.272889 73.272889 0 0 0-16.042666-23.210667 75.463111 75.463111 0 0 0-53.020445-21.333333c-10.382222 0-19.939556 1.905778-28.728889 5.688889-9.045333 3.783111-17.009778 9.016889-23.808 15.644444-6.826667 6.627556-12.174222 14.364444-16.042666 23.210667-3.896889 8.846222-5.859556 18.318222-5.859556 28.444444 0 10.097778 1.962667 19.569778 5.859556 28.416a75.463111 75.463111 0 0 0 39.879111 38.4c8.760889 3.754667 18.318222 5.688889 28.700444 5.688889z" p-id="36505"></path><path d="M531.854222 454.997333l146.403556 303.701334h-41.329778l-124.529778-262.968889-124.529778 262.968889h-41.358222l146.432-303.701334L387.868444 233.244444l-41.358222-162.048 165.888 343.978667 165.859556-343.978667L636.928 233.244444z" p-id="36506"></path><path d="M338.261333 710.371556c17.180444 0 33.393778 3.157333 48.64 9.472 14.904889 6.314667 28.046222 15.018667 39.395556 26.055111 11.349333 10.752 20.252444 23.552 26.737778 38.4 6.485333 14.848 9.728 30.634667 9.728 47.36 0 16.782222-3.242667 32.540444-9.728 47.388444a123.164444 123.164444 0 0 1-26.737778 38.4c-11.377778 11.036444-24.462222 19.740444-39.395556 26.055111a125.752889 125.752889 0 0 1-48.64 9.472 125.752889 125.752889 0 0 1-48.64-9.472 119.637333 119.637333 0 0 1-39.424-26.055111 123.164444 123.164444 0 0 1-26.737777-38.4 117.048889 117.048889 0 0 1-9.728-47.388444c0-16.725333 3.242667-32.512 9.728-47.36 6.485333-14.848 15.388444-27.648 26.737777-38.4 11.036444-11.036444 24.177778-19.740444 39.395556-26.055111a125.752889 125.752889 0 0 1 48.64-9.472z m0 193.792a75.463111 75.463111 0 0 0 68.579556-44.088889c3.896889-8.817778 5.831111-18.289778 5.831111-28.416 0-10.097778-1.934222-19.569778-5.831111-28.416a73.272889 73.272889 0 0 0-16.071111-23.210667 75.463111 75.463111 0 0 0-52.508445-21.333333 75.463111 75.463111 0 0 0-53.020444 21.333333c-6.826667 6.627556-12.174222 14.364444-16.071111 23.210667-3.896889 8.846222-5.831111 18.318222-5.831111 28.444444 0 10.097778 1.934222 19.569778 5.831111 28.416a75.463111 75.463111 0 0 0 69.063111 44.088889z m348.273778-193.792c17.180444 0 33.393778 3.157333 48.64 9.472a125.269333 125.269333 0 0 1 39.879111 26.055111 119.978667 119.978667 0 0 1 36.010667 85.76c0 16.782222-3.242667 32.540444-9.728 47.388444-6.485333 14.535111-15.246222 27.306667-26.282667 38.4a125.269333 125.269333 0 0 1-39.879111 26.055111 125.752889 125.752889 0 0 1-48.64 9.472 122.197333 122.197333 0 0 1-48.156444-9.472 125.269333 125.269333 0 0 1-39.879111-26.055111 123.164444 123.164444 0 0 1-26.766223-38.4 117.048889 117.048889 0 0 1-9.728-47.388444c0-16.725333 3.242667-32.512 9.728-47.36 6.485333-14.848 15.416889-27.648 26.737778-38.4a125.269333 125.269333 0 0 1 39.907556-26.055111 122.197333 122.197333 0 0 1 48.156444-9.472z m0 193.792a75.463111 75.463111 0 0 0 69.063111-44.088889c3.896889-8.817778 5.831111-18.289778 5.831111-28.416 0-10.097778-1.934222-19.569778-5.831111-28.416a73.272889 73.272889 0 0 0-16.042666-23.210667 75.463111 75.463111 0 0 0-53.020445-21.333333c-10.382222 0-19.939556 1.905778-28.728889 5.688889-9.045333 3.783111-17.009778 9.016889-23.808 15.644444-6.826667 6.627556-12.174222 14.364444-16.042666 23.210667-3.896889 8.846222-5.859556 18.318222-5.859556 28.444444 0 10.097778 1.962667 19.569778 5.859556 28.416a75.463111 75.463111 0 0 0 39.879111 38.4c8.760889 3.754667 18.318222 5.688889 28.700444 5.688889z" p-id="36507"></path></svg>