<?xml version="1.0" standalone="no"?><!DOCTYPE svg PUBLIC "-//W3C//DTD SVG 1.1//EN" "http://www.w3.org/Graphics/SVG/1.1/DTD/svg11.dtd"><svg t="1647255648681" class="icon" viewBox="0 0 1024 1024" version="1.1" xmlns="http://www.w3.org/2000/svg" p-id="77518" xmlns:xlink="http://www.w3.org/1999/xlink" width="128" height="128"><defs><style type="text/css"></style></defs><path d="M912 192H328a8 8 0 0 0-8 8V256a8 8 0 0 0 8 8H912a8 8 0 0 0 8-8V200A8 8 0 0 0 912 192z m0 284.16H328a8 8 0 0 0-8 7.68v56.32a8 8 0 0 0 8 7.68H912a8 8 0 0 0 8-7.68v-56.32a8 8 0 0 0-8-7.68z m0 283.84H328A8 8 0 0 0 320 768v56a8 8 0 0 0 8 8H912a8 8 0 0 0 8-8V768a8 8 0 0 0-8-8zM104 227.84A56 56 0 1 0 160 172.16a56 56 0 0 0-56 55.68zM104 512A56 56 0 1 0 160 456 56 56 0 0 0 104 512zM104 796.16A56 56 0 1 0 160 739.84a55.68 55.68 0 0 0-56 56.32z" p-id="77519"></path></svg>