<?xml version="1.0" standalone="no"?><!DOCTYPE svg PUBLIC "-//W3C//DTD SVG 1.1//EN" "http://www.w3.org/Graphics/SVG/1.1/DTD/svg11.dtd"><svg t="1648111815890" class="icon" viewBox="0 0 1024 1024" version="1.1" xmlns="http://www.w3.org/2000/svg" p-id="42648" xmlns:xlink="http://www.w3.org/1999/xlink" width="128" height="128"><defs><style type="text/css">@font-face { font-family: feedback-iconfont; src: url("//at.alicdn.com/t/font_1031158_u69w8yhxdu.woff2?t=1630033759944") format("woff2"), url("//at.alicdn.com/t/font_1031158_u69w8yhxdu.woff?t=1630033759944") format("woff"), url("//at.alicdn.com/t/font_1031158_u69w8yhxdu.ttf?t=1630033759944") format("truetype"); }
</style></defs><path d="M700.416 249.856c-14.336 0-29.696 1.024-44.032 3.072-56.32-62.464-135.168-97.28-221.184-97.28-156.672 0-285.696 121.856-297.984 276.48C63.488 470.016 12.288 548.864 12.288 638.976 12.288 768 116.736 872.448 245.76 872.448h454.656c172.032 0 311.296-139.264 311.296-311.296S872.448 249.856 700.416 249.856z m0 540.672c-125.952 0-229.376-102.4-229.376-229.376V445.44l8.192 8.192c8.192 7.168 18.432 11.264 28.672 11.264 10.24 0 21.504-4.096 29.696-12.288 15.36-16.384 15.36-41.984-1.024-58.368l-77.824-74.752c-15.36-15.36-40.96-15.36-56.32 0l-79.872 74.752c-16.384 15.36-17.408 40.96-2.048 58.368 15.36 16.384 40.96 17.408 58.368 2.048l10.24-10.24v117.76c0 91.136 38.912 173.056 101.376 229.376H245.76c-83.968 0-151.552-68.608-151.552-151.552 0-83.968 68.608-151.552 151.552-151.552 22.528 0 40.96-18.432 40.96-40.96s-18.432-40.96-40.96-40.96c-7.168 0-14.336 0-21.504 1.024 22.528-96.256 108.544-168.96 210.944-168.96 67.584 0 131.072 30.72 172.032 84.992l2.048 2.048 3.072 3.072c1.024 1.024 2.048 2.048 4.096 3.072 1.024 1.024 2.048 1.024 3.072 2.048 1.024 1.024 3.072 1.024 4.096 2.048 1.024 0 2.048 1.024 3.072 1.024 1.024 1.024 3.072 1.024 4.096 1.024 1.024 0 2.048 1.024 3.072 1.024h8.192c2.048 0 4.096 0 6.144-1.024h2.048c16.384-4.096 33.792-6.144 51.2-6.144 126.976 0 229.376 103.424 229.376 229.376S827.392 790.528 700.416 790.528z" fill="#333C4F" p-id="42649"></path><path d="M700.416 352.256c-22.528 0-40.96 18.432-40.96 40.96s18.432 40.96 40.96 40.96c12.288 0 120.832 27.648 120.832 128 0 22.528 18.432 40.96 40.96 40.96s40.96-18.432 40.96-40.96c1.024-148.48-144.384-209.92-202.752-209.92z" fill="#333C4F" p-id="42650"></path></svg>